<?xml version="1.0" encoding="utf-8"?>
<!-- Generator: Adobe Illustrator 24.3.0, SVG Export Plug-In . SVG Version: 6.00 Build 0)  -->
<svg version="1.1" id="Layer_1" xmlns="http://www.w3.org/2000/svg"
  xmlns:xlink="http://www.w3.org/1999/xlink" x="0px" y="0px"
  viewBox="0 0 128 128" style="enable-background:new 0 0 128 128;" xml:space="preserve">
<style type="text/css">
	.st0{fill:#5E72E4;}
</style>
<g>
	<path class="st0" d="M99.42,126.09c-14.68,0-26.61-11.94-26.61-26.61s11.94-26.61,26.61-26.61c14.67,0,26.61,11.94,26.61,26.61
		S114.09,126.09,99.42,126.09z M99.42,85.59c-7.65,0-13.88,6.23-13.88,13.88s6.23,13.88,13.88,13.88c7.65,0,13.88-6.23,13.88-13.88
		S107.07,85.59,99.42,85.59z"/>
	<path class="st0" d="M99.44,55.14c-14.67,0-26.61-11.94-26.61-26.61c0-14.67,11.94-26.61,26.61-26.61s26.61,11.94,26.61,26.61
		C126.06,43.2,114.12,55.14,99.44,55.14z M99.44,14.65c-7.65,0-13.88,6.23-13.88,13.88c0,7.65,6.23,13.88,13.88,13.88
		s13.88-6.23,13.88-13.88C113.32,20.87,107.09,14.65,99.44,14.65z"/>
	<path class="st0" d="M28.56,126.09c-14.68,0-26.61-11.94-26.61-26.61s11.94-26.61,26.61-26.61c14.67,0,26.61,11.94,26.61,26.61
		S43.23,126.09,28.56,126.09z M28.56,85.59c-7.65,0-13.88,6.23-13.88,13.88s6.23,13.88,13.88,13.88c7.65,0,13.88-6.23,13.88-13.88
		S36.21,85.59,28.56,85.59z"/>
	<path class="st0" d="M28.58,55.14c-14.67,0-26.61-11.94-26.61-26.61c0-14.67,11.94-26.61,26.61-26.61S55.2,13.85,55.2,28.53
		C55.2,43.2,43.26,55.14,28.58,55.14z M28.58,14.65c-7.65,0-13.88,6.23-13.88,13.88c0,7.65,6.23,13.88,13.88,13.88
		s13.88-6.23,13.88-13.88C42.46,20.87,36.23,14.65,28.58,14.65z"/>

		<rect x="57.33" y="31.28" transform="matrix(-0.7071 0.7071 -0.7071 -0.7071 153.7618 63.725)" class="st0" width="12.71" height="64.85"/>
		<rect x="57.33" y="31.28" transform="matrix(0.7071 0.7071 -0.7071 0.7071 63.7004 -26.3712)" class="st0" width="12.71" height="64.85"/>
</g>
</svg>
